Coordinates
version=1
nRows=11
nColumns=26
inDegrees=yes

Units are S.I. units (second, meters, Newtons, ...)
Angles are in degrees.

endheader
time	pelvis_tilt	pelvis_list	pelvis_rotation	pelvis_tx	pelvis_ty	pelvis_tz	hip_flexion_r	hip_adduction_r	hip_rotation_r	knee_angle_r	knee_angle_r_beta	ankle_angle_r	subtalar_angle_r	mtp_angle_r	hip_flexion_l	hip_adduction_l	hip_rotation_l	knee_angle_l	knee_angle_l_beta	ankle_angle_l	subtalar_angle_l	mtp_angle_l	lumbar_extension	lumbar_bending	lumbar_rotation
      0.00000000	      5.05384108	     -4.58976346	     -5.22409889	     -0.02432827	      0.98633012	      0.19172722	    -20.05010261	      4.94007984	      5.11375874	      7.49411785	      7.49411785	     10.60333745	      0.00000000	      0.00000000	     21.65226270	     -9.02675494	    -16.97158122	     13.82837565	     13.82837565	     -1.08763863	      0.00000000	      0.00000000	    -20.13096870	      4.95148419	      7.58173332
      0.00833333	      5.13627843	     -4.72564308	     -5.70226565	     -0.01403516	      0.98600590	      0.19142721	    -20.41258777	      4.78670130	      5.28561825	      8.18965604	      8.18965604	     10.36675905	      0.00000000	      0.00000000	     20.90827356	     -9.02724326	    -16.84100629	     13.71246045	     13.71246045	     -1.54897558	      0.00000000	      0.00000000	    -20.08014594	      4.79630150	      7.89029760
      0.01666667	      5.19223985	     -4.79103081	     -6.13001174	     -0.00364573	      0.98577682	      0.19090039	    -20.65434397	      4.56052680	      5.35226452	      9.03521152	      9.03521152	     10.22971379	      0.00000000	      0.00000000	     20.11374765	     -8.90289471	    -16.64085530	     13.24956121	     13.24956121	     -2.82103492	      0.00000000	      0.00000000	    -19.96341859	      4.59843112	      8.05895754
      0.02500000	      5.14715839	     -4.83638121	     -6.50431696	      0.00670745	      0.98559486	      0.19019565	    -20.64755076	      4.31719240	      5.28607136	     10.09100526	     10.09100526	     10.05826351	      0.00000000	      0.00000000	     19.46373848	     -8.76629989	    -16.30214864	     12.83723651	     12.83723651	     -4.43508203	      0.00000000	      0.00000000	    -19.71450838	      4.42192788	      8.12322212
      0.03333333	      5.05302371	     -4.92567256	     -6.75401003	      0.01715185	      0.98548437	      0.18918969	    -20.48571436	      4.15071302	      5.05031965	     11.32977949	     11.32977949	      9.90339742	      0.00000000	      0.00000000	     18.91553620	     -8.67728349	    -15.90129244	     12.48567678	     12.48567678	     -5.97728612	      0.00000000	      0.00000000	    -19.40394211	      4.34487504	      8.05993591
      0.04166667	      4.94329037	     -5.02279695	     -7.01886825	      0.02754682	      0.98547050	      0.18848794	    -20.18101084	      4.00122779	      4.86358075	     12.76405549	     12.76405549	      9.56502251	      0.00000000	      0.00000000	     18.47410776	     -8.73207303	    -15.81964378	     12.47352256	     12.47352256	     -6.89430516	      0.00000000	      0.00000000	    -19.08046391	      4.23667648	      8.01095683
      0.05000000	      4.91765636	     -5.01847335	     -7.27094134	      0.03780235	      0.98583861	      0.18797168	    -19.81483356	      3.75503722	      4.72299306	     14.40115826	     14.40115826	      9.14137801	      0.00000000	      0.00000000	     18.04812085	     -8.80208404	    -16.06146568	     12.80743769	     12.80743769	     -7.32508760	      0.00000000	      0.00000000	    -18.86110422	      3.96459582	      7.91171538
      0.05833333	      4.84716124	     -4.96054608	     -7.42494056	      0.04790872	      0.98643502	      0.18738601	    -19.19926047	      3.48442604	      4.41733549	     16.37385876	     16.37385876	      8.67382176	      0.00000000	      0.00000000	     17.84742286	     -8.85581619	    -16.30657488	     13.53641324	     13.53641324	     -7.16932831	      0.00000000	      0.00000000	    -18.61152418	      3.64157190	      7.72599702
      0.06666667	      4.72927940	     -4.85152223	     -7.46665951	      0.05783363	      0.98725623	      0.18655734	    -18.33806107	      3.18835973	      4.04367068	     18.62191148	     18.62191148	      8.02400028	      0.00000000	      0.00000000	     17.92553896	     -8.85872319	    -16.23361668	     14.73176193	     14.73176193	     -6.46509846	      0.00000000	      0.00000000	    -18.34139644	      3.30956927	      7.43379449
      0.07500000	      4.79741169	     -4.49575107	     -7.48391778	      0.06773443	      0.98867232	      0.18552327	    -17.48126776	      2.56324889	      3.41249213	     21.06992652	     21.06992652	      7.18159888	      0.00000000	      0.00000000	     17.58873951	     -8.46849869	    -16.29122449	     15.48925746	     15.48925746	     -5.75860995	      0.00000000	      0.00000000	    -18.26343074	      2.68450649	      7.13201604
      0.08333333	      4.92643784	     -4.10778304	     -7.46177620	      0.07758507	      0.99029631	      0.18456464	    -16.54455820	      1.89566592	      2.92582412	     23.76184071	     23.76184071	      6.20033370	      0.00000000	      0.00000000	     17.24653700	     -8.04817306	    -16.19315076	     16.36319959	     16.36319959	     -4.91353944	      0.00000000	      0.00000000	    -18.27147594	      2.01794204	      6.79970982
